<svg width="318" height="105" viewBox="0 0 318 105" fill="none" xmlns="http://www.w3.org/2000/svg">
<g filter="url(#filter0_d_193_9)">
<path d="M42.3912 7.33325C42.3912 7.33325 32.5264 12.8998 29.8215 16.0011C27.1166 19.1025 26.5119 20.1362 26.7983 22.5219C27.0847 24.9075 32.9242 24.9871 34.9131 24.9871C36.902 24.9871 47.3238 23.3966 50.3469 23.1581C53.3701 22.9195 59.5755 22.9195 62.6782 25.0666C65.7808 27.2137 65.3829 28.5655 65.3829 30.8717C65.3829 33.1778 62.2804 39.3805 60.5301 42.3228C58.7799 45.2651 56.1545 49.9941 44.062 63.6718C43.0123 64.8591 38.5726 70.0255 27.2757 79.9365C15.9787 89.8475 5 95.9999 5 95.9999L31.5716 83.1174C48.9944 67.5311 65.8602 48.1827 68.1674 33.0187C70.4745 17.8548 47.9602 22.0448 47.9602 22.0448C47.9602 22.0448 37.2201 23.6352 35.0721 23.6352C32.9241 23.6352 24.5707 24.0328 32.2081 16.0011L36.9814 11.5479L42.3912 7.33325Z" fill="#E53025"/>
<path d="M42.4219 7.37231L37.0146 11.5833L37.0156 11.5842L32.2422 16.0374C30.3355 18.0428 29.4337 19.5157 29.1797 20.594C29.053 21.1318 29.0879 21.5698 29.2373 21.927C29.3868 22.2844 29.6539 22.5663 29.998 22.7883C30.6883 23.2334 31.6845 23.4336 32.6484 23.5217C33.6114 23.6097 34.5337 23.5852 35.0723 23.5852C36.1422 23.5852 39.3601 23.1881 42.3154 22.7903C43.7918 22.5915 45.201 22.3925 46.2412 22.2434C46.7614 22.1689 47.1895 22.1072 47.4873 22.0637C47.6362 22.042 47.7529 22.0246 47.832 22.0129C47.8714 22.0072 47.9016 22.0032 47.9219 22.0002L47.9512 21.9954C47.9519 21.9952 47.9537 21.9946 47.9551 21.9944C47.9578 21.9939 47.9623 21.9934 47.9678 21.9924C47.9786 21.9905 47.9946 21.9873 48.0156 21.9836C48.0583 21.9762 48.1219 21.9659 48.2041 21.9524C48.3688 21.9254 48.6101 21.8875 48.916 21.845C49.528 21.7599 50.3999 21.6554 51.4385 21.5774C53.5151 21.4214 56.2613 21.3713 58.9365 21.7961C61.611 22.2208 64.2215 23.1213 66.0186 24.8713C67.818 26.6241 68.7955 29.2228 68.2168 33.0266C67.0612 40.6213 62.2613 49.2579 55.5771 57.9407C48.892 66.6246 40.3172 75.3603 31.6045 83.1545L31.5947 83.1643L31.5938 83.1624L5.02148 96.0452L4.97559 95.9563L4.97754 95.9553C4.97886 95.9546 4.98075 95.9529 4.9834 95.9514C4.98862 95.9485 4.99659 95.9445 5.00684 95.9387C5.0279 95.9268 5.06004 95.9087 5.10156 95.885C5.18461 95.8376 5.30787 95.7667 5.46875 95.6731C5.79077 95.4857 6.26361 95.2067 6.86621 94.8411C8.07143 94.1098 9.79636 93.0308 11.874 91.6428C16.0295 88.8667 21.597 84.8522 27.2432 79.8987C38.5374 69.99 42.9755 64.8253 44.0244 63.6389C56.1149 49.9634 58.7387 45.2366 60.4873 42.2971C61.3615 40.8276 62.5738 38.5431 63.5674 36.3381C64.0642 35.2357 64.5058 34.1539 64.8232 33.2043C65.1412 32.2533 65.333 31.4393 65.333 30.8713C65.333 30.2909 65.3578 29.7798 65.3467 29.2952C65.3356 28.8131 65.2885 28.3659 65.1465 27.925C64.8629 27.0451 64.1962 26.1781 62.6494 25.1077C61.1089 24.0417 58.7925 23.5062 56.4775 23.2678C54.1642 23.0296 51.86 23.0891 50.3506 23.2083C48.8406 23.3274 45.4818 23.7836 42.249 24.2112C40.6331 24.4249 39.0485 24.6315 37.7441 24.7844C36.4411 24.9371 35.4138 25.0374 34.9131 25.0374C33.9186 25.0374 31.9572 25.0175 30.208 24.6985C29.3338 24.5391 28.5085 24.304 27.8828 23.9573C27.2572 23.6105 26.8233 23.1466 26.749 22.5276C26.6051 21.3286 26.6838 20.4634 27.1426 19.5081C27.5995 18.5566 28.4324 17.5179 29.7842 15.968C30.4643 15.1883 31.592 14.2563 32.8975 13.2981C34.2038 12.3393 35.6912 11.352 37.0938 10.4622C38.4965 9.57214 39.8148 8.77876 40.7822 8.20825C41.2659 7.92302 41.6624 7.69373 41.9375 7.5354C42.075 7.45628 42.1819 7.39433 42.2549 7.35278C42.2912 7.3321 42.3191 7.31655 42.3379 7.30591C42.3471 7.30068 42.3546 7.29688 42.3594 7.29419C42.3618 7.29284 42.364 7.29096 42.3652 7.29028H42.3662V7.28931L42.4219 7.37231Z" stroke="#CE1126" stroke-width="0.1"/>
</g>
<g filter="url(#filter1_d_193_9)">
<path d="M79.2039 19.9622L103.952 1C92.2994 12.0773 87.5645 18.5551 82.694 30.6384C77.6301 46.9739 77.6175 56.2135 82.694 65.5353C89.0898 75.5738 100.065 81.709 120.689 87.5555H111.17C111.17 87.5555 103.356 85.227 99.4309 84.0195C69.1302 74.6977 65.7988 48.4852 79.2039 19.9622Z" fill="#F2E50F"/>
<path d="M103.986 1.03613C92.3391 12.1085 87.6078 18.5801 82.7412 30.6523C77.6794 46.981 77.6708 56.2054 82.7363 65.5088L83.0391 65.9756C89.4666 75.7222 100.404 81.7533 120.702 87.5078L120.688 87.6055H111.163L111.156 87.6035H111.155L111.154 87.6025C111.153 87.6023 111.152 87.6021 111.15 87.6016L111.067 87.5771C111.009 87.5598 110.923 87.534 110.812 87.501C110.591 87.435 110.271 87.3392 109.874 87.2207C109.08 86.9835 107.98 86.6546 106.758 86.2881C104.314 85.555 101.379 84.6712 99.416 84.0674C84.2522 79.4023 75.8288 70.5073 72.8789 59.2041C69.93 47.9047 72.4533 34.2082 79.1582 19.9414L79.1641 19.9297L79.1738 19.9229L103.922 0.959961L103.986 1.03613Z" stroke="#FCD116" stroke-width="0.1"/>
</g>
<g filter="url(#filter2_d_193_9)">
<path d="M49.5225 75.4189C61.9385 69.7029 73.7333 67.7459 98.8173 66.8667L106.755 71.9021C84.6877 69.2645 63.6521 73.8203 37.9331 86.2889L49.5225 75.4189Z" fill="#2B71B7"/>
<path d="M98.8442 66.8247L106.782 71.8599L106.75 71.9517C84.6941 69.3155 63.6678 73.8677 37.9546 86.3335L37.8989 86.2524L49.4888 75.3823L49.4946 75.3765L49.5015 75.3735C61.9267 69.6533 73.7303 67.6961 98.8159 66.8169L98.8306 66.8159L98.8442 66.8247Z" stroke="#003893" stroke-width="0.1"/>
</g>
<g filter="url(#filter3_d_193_9)">
<path d="M120.94 67H114.78C110.84 67 108.86 65.76 108.86 63.28V53.36C108.86 52.6 109.32 52.42 110.18 52.42C111.06 52.42 111.52 52.6 111.52 53.36V63.28C111.52 64.14 112.52 64.84 114.86 64.84H120.86C123.2 64.84 124.2 64.14 124.2 63.28V53.36C124.2 52.6 124.66 52.42 125.54 52.42C126.4 52.42 126.86 52.6 126.86 53.36V63.28C126.86 65.76 124.88 67 120.94 67ZM143.467 54.66H137.427V66.14C137.427 66.9 136.967 67.08 136.087 67.08C135.227 67.08 134.767 66.9 134.767 66.14V54.66H128.747C128.107 54.66 127.967 54.3 127.967 53.58C127.967 52.86 128.107 52.5 128.747 52.5H143.467C144.107 52.5 144.247 52.86 144.247 53.58C144.247 54.3 144.107 54.66 143.467 54.66ZM156.594 67H150.774C146.834 67 144.854 65.76 144.854 63.28V56.22C144.854 53.72 146.834 52.5 150.774 52.5H156.594C160.534 52.5 162.514 53.72 162.514 56.22V63.28C162.514 65.76 160.534 67 156.594 67ZM156.514 64.84C158.854 64.84 159.874 64.14 159.874 63.28V56.22C159.874 55.34 158.854 54.66 156.514 54.66H150.854C148.514 54.66 147.494 55.34 147.494 56.22V63.28C147.494 64.14 148.514 64.84 150.854 64.84H156.514ZM182.333 62.86C182.333 66.28 179.393 67 176.433 67H165.133C164.513 67 164.213 66.68 164.213 66.06V53.42C164.213 52.8 164.513 52.5 165.133 52.5H176.273C179.753 52.5 182.153 53.32 182.153 56.66C182.153 58.06 181.733 59.1 180.313 59.8C181.533 60.26 182.333 61.08 182.333 62.86ZM166.873 54.66V58.64H176.453C178.853 58.64 179.593 58.32 179.593 56.64C179.593 55.24 179.073 54.66 176.553 54.66H166.873ZM179.613 62.94C179.613 61.4 179.113 60.82 176.313 60.82H166.873V64.84H176.593C179.233 64.84 179.613 64.28 179.613 62.94ZM195.745 67H189.585C185.645 67 183.665 65.76 183.665 63.28V53.36C183.665 52.6 184.125 52.42 184.985 52.42C185.865 52.42 186.325 52.6 186.325 53.36V63.28C186.325 64.14 187.325 64.84 189.665 64.84H195.665C198.005 64.84 199.005 64.14 199.005 63.28V53.36C199.005 52.6 199.465 52.42 200.345 52.42C201.205 52.42 201.665 52.6 201.665 53.36V63.28C201.665 65.76 199.685 67 195.745 67ZM213.851 60.72H209.131C205.191 60.72 203.211 59.48 203.211 57V56.22C203.211 53.72 205.191 52.5 209.131 52.5H211.131C211.771 52.5 211.911 52.86 211.911 53.58C211.911 54.3 211.771 54.66 211.131 54.66H209.071C206.731 54.66 205.851 55.34 205.851 56.22V57C205.851 57.86 206.731 58.56 209.071 58.56H213.791C217.731 58.56 219.711 59.8 219.711 62.28V63.28C219.711 65.78 217.731 67 213.791 67H203.991C203.351 67 203.211 66.64 203.211 65.92C203.211 65.2 203.351 64.84 203.991 64.84H213.851C216.191 64.84 217.071 64.16 217.071 63.28V62.28C217.071 61.42 216.191 60.72 213.851 60.72ZM236.646 60.94H223.666V63.28C223.666 64.14 224.686 64.84 227.026 64.84H236.586C237.226 64.84 237.366 65.2 237.366 65.92C237.366 66.62 237.226 67 236.586 67H226.946C223.006 67 221.026 65.76 221.026 63.28V56.22C221.026 53.72 223.006 52.5 226.946 52.5H229.926C230.546 52.5 230.686 52.86 230.686 53.58C230.686 54.3 230.546 54.66 229.926 54.66H227.026C224.686 54.66 223.666 55.34 223.666 56.22V58.78H236.646C237.286 58.78 237.426 59.14 237.426 59.86C237.426 60.58 237.286 60.94 236.646 60.94ZM249.418 60.72H244.698C240.758 60.72 238.778 59.48 238.778 57V56.22C238.778 53.72 240.758 52.5 244.698 52.5H246.698C247.338 52.5 247.478 52.86 247.478 53.58C247.478 54.3 247.338 54.66 246.698 54.66H244.638C242.298 54.66 241.418 55.34 241.418 56.22V57C241.418 57.86 242.298 58.56 244.638 58.56H249.358C253.298 58.56 255.278 59.8 255.278 62.28V63.28C255.278 65.78 253.298 67 249.358 67H239.558C238.918 67 238.778 66.64 238.778 65.92C238.778 65.2 238.918 64.84 239.558 64.84H249.418C251.758 64.84 252.638 64.16 252.638 63.28V62.28C252.638 61.42 251.758 60.72 249.418 60.72ZM123.296 72.376V78.024C123.296 80.008 121.728 81 118.56 81H109.488C108.992 81 108.752 80.744 108.752 80.248V70.136C108.752 69.64 108.992 69.4 109.488 69.4H118.56C121.728 69.4 123.296 70.376 123.296 72.376ZM110.88 71.128V79.272H118.496C120.368 79.272 121.2 78.712 121.2 78.024V72.376C121.2 71.672 120.368 71.128 118.496 71.128H110.88ZM137.01 76.152H126.626V78.024C126.626 78.712 127.442 79.272 129.314 79.272H136.962C137.474 79.272 137.586 79.56 137.586 80.136C137.586 80.696 137.474 81 136.962 81H129.25C126.098 81 124.514 80.008 124.514 78.024V72.376C124.514 70.376 126.098 69.4 129.25 69.4H131.634C132.13 69.4 132.242 69.688 132.242 70.264C132.242 70.84 132.13 71.128 131.634 71.128H129.314C127.442 71.128 126.626 71.672 126.626 72.376V74.424H137.01C137.522 74.424 137.634 74.712 137.634 75.288C137.634 75.864 137.522 76.152 137.01 76.152ZM156.95 81H149.094C145.942 81 144.358 80.008 144.358 78.024V72.376C144.358 70.376 145.942 69.4 149.094 69.4H156.934C157.446 69.4 157.558 69.688 157.558 70.264C157.558 70.84 157.446 71.128 156.934 71.128H149.158C147.286 71.128 146.47 71.672 146.47 72.376V78.024C146.47 78.712 147.286 79.272 149.158 79.272H156.95C157.462 79.272 157.558 79.56 157.558 80.136C157.558 80.696 157.462 81 156.95 81ZM168.094 81H163.438C160.286 81 158.702 80.008 158.702 78.024V72.376C158.702 70.376 160.286 69.4 163.438 69.4H168.094C171.246 69.4 172.83 70.376 172.83 72.376V78.024C172.83 80.008 171.246 81 168.094 81ZM168.03 79.272C169.902 79.272 170.718 78.712 170.718 78.024V72.376C170.718 71.672 169.902 71.128 168.03 71.128H163.502C161.63 71.128 160.814 71.672 160.814 72.376V78.024C160.814 78.712 161.63 79.272 163.502 79.272H168.03ZM186.766 81H178.862C175.71 81 174.126 80.008 174.126 78.024V70.088C174.126 69.48 174.493 69.336 175.182 69.336C175.886 69.336 176.254 69.48 176.254 70.088V78.024C176.254 78.712 177.054 79.272 178.926 79.272H186.766C187.278 79.272 187.374 79.56 187.374 80.12C187.374 80.696 187.278 81 186.766 81ZM197.25 81H192.594C189.442 81 187.858 80.008 187.858 78.024V72.376C187.858 70.376 189.442 69.4 192.594 69.4H197.25C200.402 69.4 201.986 70.376 201.986 72.376V78.024C201.986 80.008 200.402 81 197.25 81ZM197.186 79.272C199.058 79.272 199.874 78.712 199.874 78.024V72.376C199.874 71.672 199.058 71.128 197.186 71.128H192.658C190.786 71.128 189.97 71.672 189.97 72.376V78.024C189.97 78.712 190.786 79.272 192.658 79.272H197.186ZM213.138 78.872L220.562 69.992C220.898 69.592 221.314 69.432 221.826 69.432C222.61 69.432 223.01 69.8 223.01 70.52V80.312C223.01 80.92 222.642 81.064 221.938 81.064C221.234 81.064 220.866 80.92 220.866 80.312V72.728L214.482 80.456C214.114 80.888 213.778 81.064 213.218 81.064C212.61 81.064 212.21 80.872 211.874 80.456L205.474 72.728V80.312C205.474 80.92 205.106 81.064 204.402 81.064C203.714 81.064 203.346 80.92 203.346 80.312V70.52C203.346 69.8 203.746 69.432 204.514 69.432C205.058 69.432 205.458 69.624 205.778 69.992L213.138 78.872ZM239.014 77.688C239.014 80.424 236.662 81 234.294 81H225.254C224.758 81 224.518 80.744 224.518 80.248V70.136C224.518 69.64 224.758 69.4 225.254 69.4H234.166C236.95 69.4 238.87 70.056 238.87 72.728C238.87 73.848 238.534 74.68 237.398 75.24C238.374 75.608 239.014 76.264 239.014 77.688ZM226.646 71.128V74.312H234.31C236.23 74.312 236.822 74.056 236.822 72.712C236.822 71.592 236.406 71.128 234.39 71.128H226.646ZM236.838 77.752C236.838 76.52 236.438 76.056 234.198 76.056H226.646V79.272H234.422C236.534 79.272 236.838 78.824 236.838 77.752ZM242.271 70.088V80.312C242.271 80.92 241.903 81.064 241.199 81.064C240.511 81.064 240.143 80.92 240.143 80.312V70.088C240.143 69.48 240.511 69.336 241.199 69.336C241.903 69.336 242.271 69.48 242.271 70.088ZM251.144 69.352C251.768 69.352 252.136 69.56 252.392 69.912L259.368 79.864C259.448 79.992 259.48 80.12 259.48 80.232C259.48 80.712 258.856 81.08 258.312 81.08C258.024 81.08 257.768 80.984 257.608 80.76L255.72 78.008H246.824L245.048 80.76C244.904 80.984 244.632 81.08 244.36 81.08C243.832 81.08 243.208 80.712 243.208 80.216C243.208 80.088 243.256 79.976 243.32 79.864L249.88 69.912C250.12 69.56 250.504 69.352 251.144 69.352ZM251.144 71.304L247.928 76.28H254.536L251.144 71.304ZM260.424 80.072C260.424 79.384 260.792 79.08 261.688 79.08C262.584 79.08 262.952 79.384 262.952 80.072C262.952 80.76 262.584 81.064 261.688 81.064C260.792 81.064 260.424 80.76 260.424 80.072ZM276.263 81H268.407C265.255 81 263.671 80.008 263.671 78.024V72.376C263.671 70.376 265.255 69.4 268.407 69.4H276.247C276.759 69.4 276.871 69.688 276.871 70.264C276.871 70.84 276.759 71.128 276.247 71.128H268.471C266.599 71.128 265.783 71.672 265.783 72.376V78.024C265.783 78.712 266.599 79.272 268.471 79.272H276.263C276.775 79.272 276.871 79.56 276.871 80.136C276.871 80.696 276.775 81 276.263 81ZM287.406 81H282.75C279.598 81 278.014 80.008 278.014 78.024V72.376C278.014 70.376 279.598 69.4 282.75 69.4H287.406C290.558 69.4 292.142 70.376 292.142 72.376V78.024C292.142 80.008 290.558 81 287.406 81ZM287.342 79.272C289.214 79.272 290.03 78.712 290.03 78.024V72.376C290.03 71.672 289.214 71.128 287.342 71.128H282.814C280.942 71.128 280.126 71.672 280.126 72.376V78.024C280.126 78.712 280.942 79.272 282.814 79.272H287.342ZM303.294 78.872L310.718 69.992C311.054 69.592 311.47 69.432 311.982 69.432C312.766 69.432 313.166 69.8 313.166 70.52V80.312C313.166 80.92 312.798 81.064 312.094 81.064C311.39 81.064 311.022 80.92 311.022 80.312V72.728L304.638 80.456C304.27 80.888 303.934 81.064 303.374 81.064C302.766 81.064 302.366 80.872 302.03 80.456L295.63 72.728V80.312C295.63 80.92 295.262 81.064 294.558 81.064C293.87 81.064 293.502 80.92 293.502 80.312V70.52C293.502 69.8 293.902 69.432 294.67 69.432C295.214 69.432 295.614 69.624 295.934 69.992L303.294 78.872Z" fill="white"/>
</g>
<defs>
<filter id="filter0_d_193_9" x="0.951172" y="7.24609" width="71.4819" height="96.8438" filterUnits="userSpaceOnUse" color-interpolation-filters="sRGB">
<feFlood flood-opacity="0" result="BackgroundImageFix"/>
<feColorMatrix in="SourceAlpha" type="matrix" values="0 0 0 0 0 0 0 0 0 0 0 0 0 0 0 0 0 0 127 0" result="hardAlpha"/>
<feOffset dy="4"/>
<feGaussianBlur stdDeviation="2"/>
<feComposite in2="hardAlpha" operator="out"/>
<feColorMatrix type="matrix" values="0 0 0 0 0 0 0 0 0 0 0 0 0 0 0 0 0 0 0.25 0"/>
<feBlend mode="normal" in2="BackgroundImageFix" result="effect1_dropShadow_193_9"/>
<feBlend mode="normal" in="SourceGraphic" in2="effect1_dropShadow_193_9" result="shape"/>
</filter>
<filter id="filter1_d_193_9" x="67.6108" y="0.920654" width="57.105" height="94.7349" filterUnits="userSpaceOnUse" color-interpolation-filters="sRGB">
<feFlood flood-opacity="0" result="BackgroundImageFix"/>
<feColorMatrix in="SourceAlpha" type="matrix" values="0 0 0 0 0 0 0 0 0 0 0 0 0 0 0 0 0 0 127 0" result="hardAlpha"/>
<feOffset dy="4"/>
<feGaussianBlur stdDeviation="2"/>
<feComposite in2="hardAlpha" operator="out"/>
<feColorMatrix type="matrix" values="0 0 0 0 0 0 0 0 0 0 0 0 0 0 0 0 0 0 0.25 0"/>
<feBlend mode="normal" in2="BackgroundImageFix" result="effect1_dropShadow_193_9"/>
<feBlend mode="normal" in="SourceGraphic" in2="effect1_dropShadow_193_9" result="shape"/>
</filter>
<filter id="filter2_d_193_9" x="33.8647" y="66.7656" width="76.9443" height="27.6133" filterUnits="userSpaceOnUse" color-interpolation-filters="sRGB">
<feFlood flood-opacity="0" result="BackgroundImageFix"/>
<feColorMatrix in="SourceAlpha" type="matrix" values="0 0 0 0 0 0 0 0 0 0 0 0 0 0 0 0 0 0 127 0" result="hardAlpha"/>
<feOffset dy="4"/>
<feGaussianBlur stdDeviation="2"/>
<feComposite in2="hardAlpha" operator="out"/>
<feColorMatrix type="matrix" values="0 0 0 0 0 0 0 0 0 0 0 0 0 0 0 0 0 0 0.25 0"/>
<feBlend mode="normal" in2="BackgroundImageFix" result="effect1_dropShadow_193_9"/>
<feBlend mode="normal" in="SourceGraphic" in2="effect1_dropShadow_193_9" result="shape"/>
</filter>
<filter id="filter3_d_193_9" x="104.752" y="52.4199" width="212.414" height="36.6602" filterUnits="userSpaceOnUse" color-interpolation-filters="sRGB">
<feFlood flood-opacity="0" result="BackgroundImageFix"/>
<feColorMatrix in="SourceAlpha" type="matrix" values="0 0 0 0 0 0 0 0 0 0 0 0 0 0 0 0 0 0 127 0" result="hardAlpha"/>
<feOffset dy="4"/>
<feGaussianBlur stdDeviation="2"/>
<feComposite in2="hardAlpha" operator="out"/>
<feColorMatrix type="matrix" values="0 0 0 0 0 0 0 0 0 0 0 0 0 0 0 0 0 0 0.25 0"/>
<feBlend mode="normal" in2="BackgroundImageFix" result="effect1_dropShadow_193_9"/>
<feBlend mode="normal" in="SourceGraphic" in2="effect1_dropShadow_193_9" result="shape"/>
</filter>
</defs>
</svg>
